<svg xmlns="http://www.w3.org/2000/svg" xmlns:xlink="http://www.w3.org/1999/xlink" fill="none" version="1.1" width="288.3476257324219" height="626.9999389648438" viewBox="0 0 288.3476257324219 626.9999389648438"><defs><linearGradient x1="0.017112048342823982" y1="0.09152752161026001" x2="0.9861721066522724" y2="0.10965934286680579" id="master_svg0_3537_90124"><stop offset="0%" stop-color="#1373FF" stop-opacity="0.25999999046325684"/><stop offset="36.86249256134033%" stop-color="#2B95FA" stop-opacity="0.2800000011920929"/><stop offset="60.60383319854736%" stop-color="#43B7F6" stop-opacity="1"/><stop offset="91.10057353973389%" stop-color="#0B6EFD" stop-opacity="1"/><stop offset="100%" stop-color="#C7DDFF" stop-opacity="0.25999999046325684"/></linearGradient></defs><g transform="matrix(0,1,-1,0,288.3476257324219,-286.3476257324219)" style="opacity:0.5;"><path d="M351.8476257324219,0Q309.01457573242186,0,286.3640785824219,123.31935L288.33117288242187,123.68066Q310.6806827324219,2,351.8476257324219,2Q380.0055847324219,2,398.64869573242186,23.898247Q406.66234573242184,33.311108,414.45263573242187,48.289547Q420.23619573242183,59.409607,428.4257957324219,78.887589Q431.46610573242185,86.118607,439.77410573242184,109.15466Q452.3797257324219,144.10703,460.36523573242187,163.80444Q474.2490557324219,198.05099,487.5998557324219,222.18906Q523.9999557324219,288,561.3476257324219,288Q585.6993757324219,288,602.4600557324219,249.68698Q609.0300257324218,234.66873,615.5115957324219,211.47247Q619.3794257324219,197.63031,626.3247057324219,168.58875Q632.443145732422,143.00459,635.6650057324218,131.19598Q641.0063757324219,111.61913,646.0863957324218,99.230621Q658.4827557324219,69,674.8476257324219,69Q691.7793857324218,69,705.2546057324219,99.89032Q710.7632457324219,112.51814,716.6853957324219,132.4382Q720.255555732422,144.44684,727.0813557324218,170.39288Q734.344085732422,197.99973,738.290225732422,211.1826Q744.8966957324219,233.25298,751.281585732422,247.81589Q767.514835732422,284.84119,789.2040057324218,287.98962Q852.0799257324219,297.11679,913.3124057324219,72.262756L911.3827257324219,71.737251Q850.6153257324219,294.88324,789.4912757324219,286.01038Q768.9007857324218,283.02142,753.1133157324218,247.01282Q746.7775557324219,232.56207,740.2062357324219,210.60907Q736.2694657324218,197.4574,729.0155357324219,169.88403Q722.1814557324219,143.90662,718.6024757324219,131.86826Q712.645415732422,111.83076,707.0877957324219,99.090637Q693.0889257324219,67,674.8476257324219,67Q657.1412657324219,67,644.2359057324219,98.471817Q639.1094357324218,110.97353,633.735565732422,130.66956Q630.5050957324219,142.50967,624.3795457324219,168.12355Q617.443145732422,197.12805,613.5853557324219,210.93423Q607.1415057324218,233.99548,600.6276857324219,248.88538Q584.3912657324219,286,561.3476257324219,286Q525.1792957324219,286,489.34997573242185,221.22104Q476.05738573242184,197.1882,462.2187057324219,163.05302Q454.2479057324219,143.39188,441.6554857324219,108.47614Q433.3299057324219,85.391304,430.26946573242185,78.112411Q422.04827573242187,58.559311,416.2269857324219,47.366707Q408.3320857324219,32.187134,400.17156573242187,22.601753Q380.92953473242187,0,351.8476257324219,0Z" fill-rule="evenodd" fill="url(#master_svg0_3537_90124)" fill-opacity="1"/></g></svg>